# xmcd
#
# Track frame offsets: 
#        150
#        20722
#        38156
#        57013
#        81188
#        91515
#        111284
#        126254
#        146478
#        161345
#        185062
#        204562
#
# Disc length: 2957 seconds
#
# Revision: 3
# Processed by: cddbd v1.4PL0 Copyright (c) Steve Scherf et al.
# Submitted via: ExactAudioCopy v0.90b4
#
DISCID=9d0b8b0c
DTITLE=R.E.M. - Automatic For The People
DYEAR=1992
DGENRE=Rock
TTITLE0=Drive
TTITLE1=Try Not To Breath
TTITLE2=The Sidewinders Sleeps Tonite
TTITLE3=Everybody Hurts
TTITLE4=New Orleans Instrumental No. 1
TTITLE5=Sweetness Folllows
TTITLE6=Monty Got A Raw Deal
TTITLE7=Ignoreland
TTITLE8=Star Me Kitten
TTITLE9=Man On The Moon
TTITLE10=Nightswimming
TTITLE11=Find The River
EXTD=
EXTT0=
EXTT1=
EXTT2=
EXTT3=
EXTT4=
EXTT5=
EXTT6=
EXTT7=
EXTT8=
EXTT9=
EXTT10=
EXTT11=
PLAYORDER=
